<svg width="198" height="64" viewBox="0 0 198 64" fill="none" xmlns="http://www.w3.org/2000/svg">
<rect x="15.1328" y="4.7688" width="164.834" height="54.4617" fill="white"/>
<path d="M159.762 31.9109C158.857 30.0213 157.955 28.1292 157.053 26.2396C157 26.1306 156.948 25.9885 156.797 26.0384C156.695 26.0738 156.61 26.1448 156.56 26.2372C155.416 28.6171 154.277 30.997 153.143 33.3791C152.044 35.6832 150.948 37.9896 149.849 40.2961C149.738 40.5282 149.75 40.5447 150.008 40.5447L163.588 40.5376C163.662 40.5376 163.737 40.5257 163.846 40.5163C163.808 40.4098 163.785 40.334 163.749 40.2559C162.421 37.4758 161.092 34.6934 159.762 31.9133" fill="#030504"/>
<path d="M195.817 3.06857C193.612 2.95492 191.429 2.57363 189.316 1.93191C183.745 0.245873 177.799 0.253014 172.231 1.94851C169.7 2.7275 167.067 3.12777 164.419 3.13723C161.772 3.13485 159.139 2.7394 156.605 1.96743C151.033 0.281395 145.087 0.288536 139.52 1.98397C136.988 2.76315 134.357 3.16335 131.71 3.17281C129.06 3.16805 126.425 2.77261 123.891 1.99587C118.319 0.312157 112.373 0.316979 106.805 2.01241C104.274 2.79153 101.643 3.19173 98.9934 3.2012C96.346 3.19881 93.7151 2.80575 91.1814 2.03146C85.6095 0.347802 79.6635 0.35244 74.0961 2.05038C71.5647 2.82705 68.9315 3.22958 66.2841 3.2391C63.6367 3.2344 61.0034 2.84127 58.472 2.0693C52.9002 0.383263 46.9541 0.387963 41.3868 2.08584C38.8553 2.86495 36.2221 3.26516 33.5747 3.27456C30.9273 3.26986 28.2942 2.87673 25.7603 2.10244C20.1909 0.418785 14.2471 0.423485 8.67976 2.11898C6.56752 2.76778 4.38191 3.15383 2.17488 3.27224C1.47853 3.29592 0.934094 3.87844 0.957775 4.57699V4.60543L5.05195 62.1457C5.09706 62.8112 5.6512 63.3274 6.31648 63.3274L191.753 63.145C192.419 63.1427 192.97 62.6288 193.015 61.9658L197.041 4.40652C197.084 3.71029 196.556 3.11123 195.859 3.06857L195.819 3.06619M50.6528 48.9772C49.483 49.2353 48.299 49.4177 47.1079 49.5243C45.1589 49.7374 43.1912 49.7302 41.2448 49.5029C39.9896 49.3277 38.7369 49.1217 37.4937 48.8968C35.1519 48.4871 32.7673 48.3805 30.3992 48.5841C29.227 48.6765 28.0549 48.7806 26.885 48.8943C26.3499 48.9464 25.8195 49.0411 25.289 49.1193C25.0545 49.1525 25.0357 49.1311 25.0144 48.8968C25.0073 48.6883 25.076 48.4846 25.2062 48.3236C27.7919 44.5443 30.3731 40.765 32.9544 36.9904C36.0944 32.3893 39.2366 27.7859 42.3743 23.1848C42.4287 23.1043 42.4904 22.948 42.4547 22.9101C42.3743 22.8178 42.2604 22.761 42.1398 22.7492C40.5676 22.7396 38.9974 22.7444 37.425 22.7492L26.0208 22.7467C25.6821 22.7467 25.6821 22.7467 25.6821 22.4057V18.6643C25.6821 18.3091 25.6821 18.3091 26.0304 18.3091L36.7952 18.302C35.4218 16.1613 34.0484 14.0206 32.6748 11.88C32.6369 11.8208 32.6063 11.7568 32.5399 11.6361H32.9495H34.413C34.5551 11.6242 34.6948 11.6953 34.7681 11.8184C35.7818 13.2605 36.7976 14.7002 37.8182 16.1377C37.8798 16.2205 37.9461 16.3034 38.0266 16.4099C38.107 16.3128 38.171 16.2395 38.2278 16.1613C39.277 14.7144 40.3212 13.2699 41.3654 11.8231C41.4461 11.6977 41.5928 11.6265 41.7419 11.6408C42.2653 11.6502 42.7886 11.6408 43.3143 11.6408C43.3903 11.6408 43.4683 11.6479 43.5868 11.6526C43.5368 11.7497 43.5086 11.816 43.4683 11.8776C42.0972 14.023 40.7236 16.166 39.3527 18.3091L50.1389 18.3043C50.5061 18.3043 50.4989 18.3043 50.5106 18.6643C50.5154 18.8655 50.4562 19.0598 50.3378 19.2232C45.9547 25.6452 41.5786 32.072 37.2096 38.5059C35.8811 40.4596 34.5528 42.4131 33.2219 44.3667C33.184 44.4094 33.1533 44.4567 33.1297 44.5088C33.1011 44.5798 33.0988 44.6556 33.1201 44.7266C33.1722 44.7787 33.2457 44.8048 33.319 44.7954C34.4651 44.5869 35.6325 44.5159 36.7952 44.5893C37.695 44.6509 38.5927 44.7716 39.4876 44.8901C40.3828 45.0108 41.2589 45.1505 42.1469 45.2713C43.6885 45.4418 45.2443 45.4347 46.7858 45.2499C48.048 45.1316 49.3007 44.9137 50.5296 44.5987C50.641 44.5704 50.7521 44.5561 50.9061 44.5277C50.9108 44.6295 50.9205 44.71 50.9205 44.7835C50.9205 46.0741 50.9205 47.3646 50.9252 48.6552C50.9252 48.8612 50.8659 48.9299 50.66 48.9772M60.1984 49.1287C58.8698 49.1287 57.5439 49.1287 56.2153 49.1359C56.0046 49.1359 55.9311 49.0861 55.9311 48.8612C55.9311 38.7664 55.9288 28.6692 55.9218 18.572C55.9218 18.3043 55.9311 18.2925 56.2011 18.2925H60.2054C60.5158 18.2925 60.5158 18.2925 60.5158 18.6051C60.5158 23.6466 60.518 28.6881 60.5251 33.7296C60.5251 38.7474 60.5275 43.7676 60.5321 48.7878C60.5321 49.1311 60.5321 49.1311 60.1984 49.1311M95.5646 19.4386L89.5712 31.4208L83.4166 43.6989C82.4339 45.662 81.4514 47.6275 80.4684 49.5929C80.4212 49.7207 80.2909 49.8037 80.1535 49.7918C79.5451 49.7918 79.5427 49.799 79.2704 49.2591C76.4146 43.5592 73.5587 37.8618 70.7005 32.1619C68.4224 27.6202 66.1444 23.0806 63.8663 18.5388C63.8355 18.4772 63.8118 18.4133 63.767 18.3043C63.8948 18.2973 63.9706 18.2877 64.0463 18.2877C65.5759 18.2877 67.1035 18.2877 68.633 18.283C68.799 18.2617 68.9553 18.3635 69.005 18.5222C71.3256 23.5827 73.6511 28.6384 75.9787 33.6917C77.2173 36.3817 78.4556 39.0719 79.6917 41.7619C79.7415 41.8661 79.7722 41.9868 79.9429 41.9845C80.0968 41.9845 80.1464 41.8921 80.2009 41.7784C82.4647 36.8506 84.7332 31.9252 87.0019 27.0021C88.3114 24.1628 89.6185 21.3236 90.928 18.4844C90.9731 18.3446 91.108 18.257 91.2524 18.2713H95.8605C95.934 18.2713 96.0097 18.283 96.1235 18.2949C95.9246 18.6975 95.7421 19.0669 95.5574 19.4362M103.677 49.1074C102.377 49.1074 101.08 49.1074 99.7797 49.1146C99.569 49.1146 99.4956 49.0648 99.4956 48.8399C99.4956 38.7426 99.4931 28.6454 99.486 18.5482C99.486 18.283 99.4978 18.2713 99.7656 18.2713H103.77C104.08 18.2713 104.08 18.2713 104.08 18.5814L104.09 33.7058C104.09 38.7048 104.092 43.7037 104.097 48.7002C104.097 49.1666 104.137 49.1098 103.677 49.1098M136.856 49.7682C136.527 49.8012 136.205 49.6687 135.996 49.4129C128.992 42.0768 121.98 34.7478 114.959 27.4236C114.857 27.3312 114.736 27.2602 114.606 27.2176C114.577 27.2057 114.483 27.3004 114.457 27.362C114.44 27.4306 114.438 27.5041 114.449 27.5751C114.459 34.6413 114.464 41.7098 114.471 48.783C114.471 49.1052 114.471 49.1052 114.142 49.1052C112.887 49.1052 111.632 49.1052 110.374 49.1098C110.161 49.1098 110.095 49.0554 110.095 48.8352C110.095 38.5391 110.09 28.2406 110.083 17.9445C110.083 17.6579 110.095 17.6697 110.391 17.6437C110.725 17.6035 111.056 17.736 111.274 17.9942C118.3 25.3113 125.333 32.6214 132.371 39.9243C132.482 40.0404 132.591 40.2322 132.768 40.1256C132.847 40.0782 132.849 39.8722 132.849 39.7396C132.849 32.7327 132.847 25.7281 132.842 18.7211C132.844 18.6501 132.844 18.579 132.842 18.5057C132.823 18.3233 132.896 18.2522 133.086 18.2547C133.711 18.2617 134.336 18.2547 134.959 18.2547H136.896C137.199 18.2547 137.199 18.2547 137.199 18.5673C137.199 23.7152 137.201 28.8634 137.208 34.0114C137.208 39.1452 137.211 44.2791 137.215 49.4153C137.215 49.7634 137.215 49.7396 136.86 49.7682M172.733 49.0744C171.206 49.0744 169.676 49.0744 168.149 49.0838C167.99 49.1004 167.843 49.0033 167.794 48.8541C167.102 47.3693 166.404 45.887 165.712 44.4022C165.665 44.2578 165.525 44.1654 165.374 44.1796C159.655 44.1867 153.936 44.189 148.217 44.1867C148.066 44.1701 147.924 44.2602 147.876 44.4046C147.216 45.8894 146.548 47.3693 145.885 48.8516C145.838 49.0103 145.684 49.1122 145.52 49.0957C143.969 49.0861 142.42 49.0957 140.869 49.0957H140.597C140.633 48.9961 140.649 48.9299 140.678 48.8707C142.773 44.703 144.866 40.5329 146.962 36.3653C149.044 32.2236 151.125 28.0796 153.207 23.9379C154.232 21.8989 155.255 19.8577 156.28 17.819C156.33 17.691 156.458 17.6106 156.595 17.6224C157.209 17.6224 157.211 17.6129 157.481 18.1528C160.396 23.9591 163.311 29.7655 166.226 35.5695C168.445 39.9882 170.664 44.4046 172.885 48.8233C172.918 48.892 172.947 48.963 172.989 49.0625C172.88 49.0695 172.807 49.0766 172.729 49.0766" fill="#030504"/>
</svg>
